<?xml version="1.0" encoding="UTF-8" standalone="no"?>
<!-- Created with Inkscape (http://www.inkscape.org/) -->

<svg
   xmlns:dc="http://purl.org/dc/elements/1.1/"
   xmlns:cc="http://creativecommons.org/ns#"
   xmlns:rdf="http://www.w3.org/1999/02/22-rdf-syntax-ns#"
   xmlns:svg="http://www.w3.org/2000/svg"
   xmlns="http://www.w3.org/2000/svg"
   xmlns:sodipodi="http://sodipodi.sourceforge.net/DTD/sodipodi-0.dtd"
   xmlns:inkscape="http://www.inkscape.org/namespaces/inkscape"
   width="64"
   height="64"
   viewBox="0 0 64.000001 64.000001"
   id="svg2"
   version="1.1"
   inkscape:version="0.91 r13725"
   sodipodi:docname="logo.svg"
   inkscape:export-filename="/home/desttinghim/Documents/portfolio/portfolio-website/images/logo.png"
   inkscape:export-xdpi="22.5"
   inkscape:export-ydpi="22.5">
  <defs
     id="defs4" />
  <sodipodi:namedview
     id="base"
     pagecolor="#ffffff"
     bordercolor="#666666"
     borderopacity="1.0"
     inkscape:pageopacity="0.0"
     inkscape:pageshadow="2"
     inkscape:zoom="5.6"
     inkscape:cx="8.6981717"
     inkscape:cy="16.60158"
     inkscape:document-units="px"
     inkscape:current-layer="layer1"
     showgrid="false"
     units="px"
     inkscape:window-width="1215"
     inkscape:window-height="776"
     inkscape:window-x="65"
     inkscape:window-y="24"
     inkscape:window-maximized="1" />
  <metadata
     id="metadata7">
    <rdf:RDF>
      <cc:Work
         rdf:about="">
        <dc:format>image/svg+xml</dc:format>
        <dc:type
           rdf:resource="http://purl.org/dc/dcmitype/StillImage" />
        <dc:title></dc:title>
      </cc:Work>
    </rdf:RDF>
  </metadata>
  <g
     inkscape:label="Layer 1"
     inkscape:groupmode="layer"
     id="layer1"
     transform="translate(0,-988.36214)">
    <path
       style="fill:#000000;fill-opacity:1;fill-rule:evenodd;stroke:#000000;stroke-width:1px;stroke-linecap:butt;stroke-linejoin:miter;stroke-opacity:1"
       d="m 12.857143,1007.1836 c 2.216301,5.1554 3.571005,7.8992 -0.357143,12.1428 -16.7359216,16.4237 -2.383159,29.2595 9.642857,31.4286 45.974862,7.0525 57.505049,-58.01587 -4.642857,-60.17857 14.842304,11.94207 22.979781,23.22987 3.928572,33.03567 3.33915,-9.2941 0.243165,-12.3304 -8.571429,-16.4285 z"
       id="path4136"
       inkscape:connector-curvature="0"
       sodipodi:nodetypes="cccccc" />
    <path
       style="fill:#000000;fill-opacity:1;fill-rule:evenodd;stroke:#000000;stroke-width:1px;stroke-linecap:butt;stroke-linejoin:miter;stroke-opacity:1"
       d="m 1.7872539,991.16073 c 0,0 2.1988568,5.52732 3.7500003,7.67853 1.551144,2.15124 4.276728,1.86964 5.3571428,1.42864 1.635198,-0.66754 -9.1071431,-9.10717 -9.1071431,-9.10717 z"
       id="path4140"
       inkscape:connector-curvature="0"
       sodipodi:nodetypes="czsc" />
    <path
       style="fill:#ffffff;fill-opacity:1;fill-rule:evenodd;stroke:#ffffff;stroke-width:1px;stroke-linecap:butt;stroke-linejoin:miter;stroke-opacity:1"
       d="m 22.475894,1048.1953 c -16.9046065,-5.1156 -14.7929538,-12.8387 -7.197337,-22.3496 -0.341632,4.7516 1.141883,8.0431 4.166879,10.1015 9.948104,-1.3179 18.737415,-12.2965 23.233509,-20.0769 4.595839,4.7817 2.476261,19.7823 -3.661803,24.6225 2.708967,1.5841 6.988216,0.3148 10.480333,-1.1364 -2.630002,5.7027 -12.74248,11.8867 -27.021581,8.8389 z"
       id="path4142"
       inkscape:connector-curvature="0"
       sodipodi:nodetypes="ccccccc" />
  </g>
</svg>
