<?xml version="1.0" encoding="UTF-8" standalone="no"?>
<!-- Created with Inkscape (http://www.inkscape.org/) -->

<svg
   xmlns:dc="http://purl.org/dc/elements/1.1/"
   xmlns:cc="http://creativecommons.org/ns#"
   xmlns:rdf="http://www.w3.org/1999/02/22-rdf-syntax-ns#"
   xmlns:svg="http://www.w3.org/2000/svg"
   xmlns="http://www.w3.org/2000/svg"
   xmlns:sodipodi="http://sodipodi.sourceforge.net/DTD/sodipodi-0.dtd"
   xmlns:inkscape="http://www.inkscape.org/namespaces/inkscape"
   width="64"
   height="64"
   viewBox="0 0 64.000001 64.000001"
   id="svg2"
   version="1.1"
   inkscape:version="0.91 r13725"
   sodipodi:docname="logo.svg"
   inkscape:export-filename="/home/desttinghim/Documents/portfolio/portfolio-website/images/logo.png"
   inkscape:export-xdpi="22.5"
   inkscape:export-ydpi="22.5">
  <defs
     id="defs4" />
  <sodipodi:namedview
     id="base"
     pagecolor="#ffffff"
     bordercolor="#666666"
     borderopacity="1.0"
     inkscape:pageopacity="0.0"
     inkscape:pageshadow="2"
     inkscape:zoom="7.9195959"
     inkscape:cx="24.038691"
     inkscape:cy="29.027439"
     inkscape:document-units="px"
     inkscape:current-layer="layer1"
     showgrid="false"
     units="px"
     inkscape:window-width="1215"
     inkscape:window-height="776"
     inkscape:window-x="65"
     inkscape:window-y="24"
     inkscape:window-maximized="1"
     inkscape:snap-page="true" />
  <metadata
     id="metadata7">
    <rdf:RDF>
      <cc:Work
         rdf:about="">
        <dc:format>image/svg+xml</dc:format>
        <dc:type
           rdf:resource="http://purl.org/dc/dcmitype/StillImage" />
        <dc:title />
      </cc:Work>
    </rdf:RDF>
  </metadata>
  <g
     inkscape:label="Layer 1"
     inkscape:groupmode="layer"
     id="layer1"
     transform="translate(0,-988.36214)">
    <rect
       style="fill:#e5654b;fill-opacity:1;stroke:none;stroke-width:1;stroke-linecap:round;stroke-linejoin:round;stroke-miterlimit:4;stroke-dasharray:8, 1;stroke-dashoffset:0;stroke-opacity:1"
       id="rect4701"
       width="64"
       height="64.000015"
       x="0"
       y="988.36212"
       ry="3.1567266" />
    <g
       id="g4695"
       transform="translate(0.88388348,-0.12626907)">
      <path
         style="fill:#000000;fill-opacity:1;fill-rule:evenodd;stroke:#000000;stroke-width:1px;stroke-linecap:butt;stroke-linejoin:miter;stroke-opacity:1"
         d="M 17.5,2.2148438 C 32.342304,14.156914 40.478943,25.4442 21.427734,35.25 24.766884,25.9559 21.672016,22.920366 12.857422,18.822266 15.073723,23.977666 16.428148,26.721244 12.5,30.964844 -4.2359216,47.388544 10.116562,60.223478 22.142578,62.392578 68.11744,69.445078 79.647906,4.3775438 17.5,2.2148438 Z M 42.679688,27.507812 c 4.595838,4.781701 2.475954,19.782847 -3.66211,24.623047 2.708967,1.5841 6.988352,0.314482 10.480469,-1.136718 -2.630002,5.7027 -12.742383,11.887643 -27.021485,8.839843 -16.904606,-5.1156 -14.7928819,-12.838709 -7.197265,-22.349609 -0.341632,4.7516 1.141019,8.043163 4.166015,10.101563 9.948105,-1.317901 18.738282,-12.297726 23.234376,-20.078126 z"
         transform="translate(0,988.36214)"
         id="path4136"
         inkscape:connector-curvature="0" />
      <path
         sodipodi:nodetypes="czsc"
         inkscape:connector-curvature="0"
         id="path4140"
         d="m 1.7872539,991.16073 c 0,0 2.1988568,5.52732 3.7500003,7.67853 1.551144,2.15124 4.276728,1.86964 5.3571428,1.42864 1.635198,-0.66754 -9.1071431,-9.10717 -9.1071431,-9.10717 z"
         style="fill:#000000;fill-opacity:1;fill-rule:evenodd;stroke:#000000;stroke-width:1px;stroke-linecap:butt;stroke-linejoin:miter;stroke-opacity:1" />
    </g>
  </g>
</svg>
